<svg width="39" height="24" viewBox="0 0 39 24" fill="none" xmlns="http://www.w3.org/2000/svg">
<g clip-path="url(#clip0_4_2)">
<path d="M2.71236 1.41062C2.03577 1.40953 1.48643 1.94483 1.48536 2.60625L1.45511 21.3368C1.45404 21.9982 2.00163 22.5353 2.67825 22.5363L35.5101 22.5894C36.1867 22.5905 36.736 22.0552 36.7371 21.3937L36.7674 2.66323C36.7684 2.00183 36.2208 1.46474 35.5442 1.46365L2.71236 1.41062ZM2.71468 -0.0265006L35.5466 0.0265234C37.035 0.0289273 38.2398 1.2105 38.2375 2.6656L38.2072 21.3961C38.2049 22.8513 36.9963 24.0289 35.5078 24.0265L2.67592 23.9735C1.1874 23.9711 -0.017324 22.7895 -0.014974 21.3344L0.0152761 2.60387C0.0176262 1.14876 1.22618 -0.0289045 2.71468 -0.0265006Z" fill="white"/>
<path d="M8.32643 8.61738C7.91795 8.33563 7.38456 8.19389 6.72626 8.19283L4.17765 8.18871C3.97583 8.18838 3.86418 8.28912 3.84267 8.49072L2.79683 14.9871C2.78597 15.0509 2.80184 15.1093 2.84431 15.1624C2.88654 15.2156 2.93971 15.2421 3.00344 15.2423L4.21401 15.2442C4.42634 15.2445 4.54321 15.1441 4.56496 14.9422L4.85446 13.1909C4.86506 13.106 4.90252 13.037 4.96634 12.984C5.03011 12.931 5.10982 12.8964 5.20542 12.8807C5.30102 12.865 5.39115 12.8572 5.47626 12.8574C5.56112 12.8575 5.66194 12.863 5.77892 12.8738C5.89561 12.8846 5.97 12.8899 6.00189 12.8899C6.91507 12.8914 7.63227 12.6353 8.15353 12.121C8.67454 11.607 8.93607 10.8935 8.93755 9.98016C8.93856 9.35378 8.73471 8.89955 8.32643 8.61738ZM7.00919 10.5664C6.95533 10.938 6.81705 11.1818 6.59387 11.2983C6.37065 11.4149 6.05199 11.4726 5.6379 11.4719L5.11219 11.487L5.38579 9.78325C5.40711 9.6666 5.4762 9.60829 5.5931 9.60848L5.89584 9.60897C6.32039 9.60966 6.62844 9.67134 6.81939 9.79355C7.01024 9.91605 7.07356 10.1737 7.00919 10.5664Z" fill="white"/>
<path d="M35.223 8.23886L34.0444 8.23696C33.9272 8.23677 33.8582 8.29507 33.837 8.41187L32.7909 15.0356L32.7749 15.0674C32.7748 15.1207 32.7959 15.171 32.8384 15.2188C32.8806 15.2666 32.9339 15.2906 32.9975 15.2907L34.0489 15.2924C34.2504 15.2927 34.3621 15.1922 34.3839 14.9904L35.4298 8.47797L35.4299 8.46215C35.43 8.31353 35.3609 8.23908 35.223 8.23886Z" fill="white"/>
<path d="M20.9784 10.7799C20.9785 10.7269 20.9572 10.6764 20.9151 10.6286C20.8726 10.5808 20.8247 10.5567 20.7719 10.5566L19.5453 10.5546C19.4282 10.5544 19.3326 10.6076 19.2583 10.7134L17.5658 13.1953L16.8688 10.8052C16.8158 10.6354 16.6992 10.55 16.5188 10.5497L15.324 10.5478C15.2708 10.5477 15.223 10.5716 15.1807 10.6193C15.138 10.667 15.1168 10.7175 15.1167 10.7704C15.1167 10.7919 15.2197 11.1051 15.4258 11.7106C15.6318 12.3163 15.8537 12.9697 16.0916 13.6709C16.3294 14.3719 16.4535 14.7439 16.4641 14.7861C15.5913 15.974 15.155 16.6104 15.1549 16.6952C15.1547 16.8333 15.2235 16.9024 15.3616 16.9026L16.5882 16.9046C16.7049 16.9048 16.8005 16.852 16.8752 16.7459L20.9465 10.8913C20.9677 10.8703 20.9783 10.8333 20.9784 10.7799Z" fill="white"/>
<path d="M32.3999 10.5754L31.1892 10.5734C31.0404 10.5732 30.9501 10.7483 30.9177 11.0986C30.642 10.6737 30.1383 10.4603 29.4054 10.4591C28.6408 10.4578 27.9897 10.7435 27.4528 11.316C26.9155 11.8885 26.6464 12.5624 26.6451 13.3374C26.6441 13.964 26.8264 14.4633 27.1921 14.8353C27.5579 15.2078 28.0487 15.3942 28.6648 15.3952C28.9727 15.3957 29.286 15.3323 29.6048 15.2056C29.9236 15.0787 30.1732 14.9093 30.3544 14.6971C30.3544 14.7078 30.3435 14.7555 30.3222 14.8404C30.3007 14.9254 30.2902 14.9892 30.2901 15.0314C30.2898 15.2015 30.3585 15.2863 30.4968 15.2865L31.596 15.2883C31.7974 15.2886 31.9146 15.1882 31.9467 14.9863L32.6066 10.8306C32.6171 10.7669 32.6013 10.7085 32.559 10.6553C32.5165 10.6022 32.4636 10.5755 32.3999 10.5754ZM30.3161 13.7096C30.0449 13.9747 29.7181 14.1068 29.3359 14.1062C29.0278 14.1057 28.7786 14.0205 28.5876 13.8502C28.3967 13.6802 28.3015 13.4465 28.3019 13.1489C28.3026 12.7563 28.4359 12.4245 28.7018 12.1542C28.9675 11.8839 29.2972 11.749 29.6901 11.7497C29.9872 11.7501 30.234 11.8382 30.4304 12.0136C30.6263 12.1892 30.7244 12.4309 30.7239 12.7389C30.7232 13.1211 30.5873 13.4448 30.3161 13.7096Z" fill="white"/>
<path d="M14.3047 10.5462L13.0941 10.5442C12.9452 10.544 12.8548 10.7191 12.8224 11.0694C12.5363 10.6444 12.0322 10.431 11.3101 10.4299C10.5455 10.4286 9.89455 10.7143 9.35743 11.2868C8.82015 11.8593 8.55104 12.5332 8.54979 13.3082C8.54878 13.9348 8.73118 14.4341 9.09696 14.8061C9.46273 15.1786 9.95345 15.365 10.5694 15.366C10.8666 15.3664 11.1749 15.3031 11.4936 15.1763C11.8124 15.0495 12.0675 14.8801 12.259 14.6679C12.2162 14.7953 12.1949 14.9068 12.1947 15.0022C12.1945 15.1723 12.2633 15.2571 12.4014 15.2573L13.5005 15.2591C13.7021 15.2594 13.8192 15.159 13.8514 14.9571L14.5112 10.8014C14.5218 10.7377 14.506 10.6793 14.4637 10.6261C14.4213 10.573 14.3683 10.5463 14.3047 10.5462ZM12.2208 13.6883C11.9496 13.9483 11.6173 14.0776 11.2247 14.0769C10.9165 14.0764 10.6698 13.9912 10.4844 13.8209C10.2987 13.651 10.2062 13.4173 10.2067 13.1197C10.2073 12.7271 10.3405 12.3953 10.6066 12.125C10.8723 11.8547 11.2018 11.7198 11.5948 11.7205C11.892 11.7209 12.1388 11.809 12.3351 11.9844C12.5311 12.16 12.6291 12.4017 12.6286 12.7097C12.628 13.1025 12.492 13.4289 12.2208 13.6883Z" fill="white"/>
<path d="M26.4216 8.64661C26.0131 8.36487 25.4799 8.22313 24.8214 8.22206L22.2888 8.21797C22.0763 8.21763 21.9593 8.31835 21.9378 8.51996L20.8921 15.0163C20.8812 15.0801 20.897 15.1385 20.9395 15.1916C20.9816 15.2449 21.0349 15.2714 21.0986 15.2715L22.4047 15.2736C22.5321 15.2738 22.6172 15.205 22.6599 15.067L22.9497 13.2201C22.9603 13.1352 22.9976 13.0663 23.0615 13.0132C23.1253 12.9602 23.2049 12.9257 23.3006 12.9099C23.3962 12.8943 23.4863 12.8865 23.5715 12.8866C23.6563 12.8868 23.7572 12.8923 23.874 12.903C23.9908 12.9138 24.0653 12.9191 24.0969 12.9192C25.0103 12.9206 25.7274 12.6645 26.2486 12.1503C26.7698 11.6362 27.0311 10.9227 27.0325 10.0094C27.0336 9.38302 26.8298 8.92879 26.4216 8.64661ZM24.7847 11.264C24.5508 11.4228 24.2001 11.5018 23.733 11.5011L23.2232 11.5162L23.4968 9.81246C23.5181 9.69581 23.5871 9.6375 23.7041 9.63769L23.9908 9.63816C24.2243 9.63853 24.4101 9.64945 24.5483 9.67085C24.6862 9.69244 24.8189 9.75886 24.9462 9.87054C25.0735 9.98223 25.1369 10.1443 25.1365 10.3566C25.1358 10.8026 25.0184 11.105 24.7847 11.264Z" fill="white"/>
</g>
<defs>
<clipPath id="clip0_4_2">
<rect width="38.2222" height="24" fill="white"/>
</clipPath>
</defs>
</svg>
